<?xml version="1.0" standalone="no"?>
<!DOCTYPE svg PUBLIC "-//W3C//DTD SVG 20010904//EN"
 "http://www.w3.org/TR/2001/REC-SVG-20010904/DTD/svg10.dtd">
<svg version="1.0" xmlns="http://www.w3.org/2000/svg"
 width="127.000000pt" height="126.000000pt" viewBox="0 0 127.000000 126.000000"
 preserveAspectRatio="xMidYMid meet">

<g transform="translate(0.000000,126.000000) scale(0.100000,-0.100000)"
fill="#000000" stroke="none">
<path d="M620 1219 c-104 -9 -169 -32 -255 -94 -241 -172 -337 -537 -212 -803
11 -25 47 -73 79 -108 66 -70 117 -98 278 -151 l105 -35 155 5 c85 3 173 11
194 17 31 9 49 9 79 0 21 -6 40 -10 42 -8 2 2 0 106 -3 231 l-7 229 -32 28
c-33 30 -88 50 -136 50 -26 0 -27 -1 -13 -23 10 -16 15 -72 19 -200 6 -208 12
-198 -117 -205 -102 -6 -95 12 11 29 55 9 71 15 57 20 -39 15 -148 9 -214 -12
l-65 -21 -48 27 c-68 39 -152 119 -176 168 -14 29 -21 63 -21 101 0 49 4 61
28 85 16 16 43 30 67 34 22 4 46 11 52 15 18 11 20 146 3 167 -11 13 -10 18 4
33 9 10 16 22 16 26 0 3 -22 28 -49 54 -43 41 -84 106 -63 100 4 -1 26 10 49
26 57 38 137 56 253 56 151 0 259 -40 295 -110 9 -17 20 -28 24 -25 19 11 41
75 41 117 0 37 -5 49 -32 74 -47 43 -78 60 -139 78 -83 23 -175 32 -269 25z"/>
</g>
</svg>
